<svg id="svg" version="1.1"  viewBox="0 0 390 310" xmlns="http://www.w3.org/2000/svg"
  xmlns:xlink="http://www.w3.org/1999/xlink">
		<path id="path1" d="M179.544 31.056 C 155.858 31.237,105.700 32.868,93.784 33.843 C 69.298 35.849,68.255 35.967,59.953 37.664 C 56.079 38.456,53.843 39.099,51.849 39.993 C 50.334 40.672,48.984 41.227,48.849 41.227 C 47.256 41.227,38.207 47.675,34.296 51.597 C 23.481 62.440,20.647 74.794,15.519 133.438 C 14.867 140.897,14.766 181.150,15.380 188.670 C 18.751 229.915,22.105 251.721,26.564 261.370 C 30.556 270.011,39.654 278.577,49.095 282.584 C 50.047 282.988,51.525 283.671,52.379 284.102 C 55.054 285.450,66.051 287.571,74.084 288.287 C 77.909 288.628,83.375 289.119,86.231 289.377 C 118.370 292.280,200.437 293.795,248.308 292.368 C 289.803 291.131,317.363 289.628,332.022 287.802 C 349.975 285.565,363.405 278.143,371.500 265.984 C 376.049 259.151,377.537 254.330,379.544 239.930 C 379.903 237.355,380.473 233.548,380.809 231.471 C 381.535 226.997,382.212 221.128,382.680 215.264 C 382.866 212.927,383.152 209.953,383.315 208.655 C 383.700 205.595,384.488 195.551,384.908 188.356 C 385.090 185.240,385.238 173.131,385.237 161.448 C 385.234 137.614,384.997 132.128,383.158 113.454 C 382.902 110.858,382.474 106.397,382.206 103.541 C 381.939 100.685,381.376 96.153,380.955 93.470 C 380.534 90.787,380.039 87.388,379.854 85.917 C 377.146 64.373,371.782 53.884,359.214 45.554 C 347.455 37.760,338.647 35.890,303.383 33.698 C 279.737 32.228,220.290 30.687,196.066 30.916 C 191.825 30.956,184.390 31.019,179.544 31.056 M202.106 100.763 C 203.770 101.262,205.798 103.109,206.934 105.160 L 207.868 106.845 208.025 129.047 C 208.199 153.511,208.081 152.147,210.140 153.497 C 210.922 154.010,212.664 154.064,233.188 154.209 L 255.389 154.367 256.859 155.090 C 263.341 158.284,263.007 165.978,256.250 169.099 C 254.773 169.781,254.563 169.789,232.527 169.945 C 210.892 170.098,210.275 170.119,209.602 170.728 C 208.161 172.033,208.190 171.602,208.025 194.650 L 207.868 216.680 207.144 218.253 C 204.480 224.042,197.782 224.910,194.178 219.935 C 192.452 217.552,192.485 217.996,192.302 194.262 L 192.132 172.160 191.104 171.131 L 190.075 170.102 167.972 169.930 C 153.401 169.817,145.541 169.643,144.907 169.419 C 138.550 167.177,136.730 160.731,141.292 156.618 C 143.927 154.242,142.394 154.385,167.113 154.209 C 188.057 154.061,189.354 154.019,190.270 153.465 C 192.225 152.281,192.118 153.556,192.290 129.347 C 192.444 107.622,192.461 107.130,193.110 105.728 C 194.975 101.695,198.579 99.707,202.106 100.763 "
		  stroke="none" fill="#03a9f4" fill-rule="evenodd"></path>
</svg>